<svg width="744" height="236" viewBox="0 0 744 236" fill="none" xmlns="http://www.w3.org/2000/svg">
<g clip-path="url(#clip0_1_23)">
<path d="M93.8692 234.265C66.4907 227.432 44.0012 211.561 26.4007 186.671C8.80023 161.78 0 134.503 0 104.823V35.1397L93.8692 0L187.738 35.1397V104.823C187.738 120.061 185.638 135.136 181.437 150.067C177.236 164.998 169.848 178.916 159.291 191.804L118.224 152.561C114.512 154.712 110.582 156.466 106.436 157.821C102.307 159.195 98.1244 159.882 93.8692 159.882C81.7553 159.882 71.434 155.688 62.9235 147.283C54.413 138.896 50.1758 128.593 50.1758 116.391C50.1758 104.19 54.413 93.8505 62.9235 85.3548C71.434 76.8591 81.7553 72.6112 93.8692 72.6112C106.001 72.6112 116.322 76.8591 124.815 85.3548C133.325 93.8505 137.581 104.244 137.581 116.536C137.581 120.639 137.001 124.742 135.824 128.846C134.647 132.931 132.8 136.654 130.247 139.962L156.068 164.564C160.758 156.176 164.271 146.759 166.625 136.311C168.979 125.863 170.138 115.361 170.138 104.823V46.7083L93.8692 19.034L17.6005 46.7083V104.823C17.6005 130.4 24.6986 153.483 38.8768 174.09C53.0549 194.678 71.3978 208.687 93.9416 216.098C99.573 214.544 106.436 211.326 114.548 206.446C122.678 201.565 129.07 196.865 133.778 192.383L146.091 204.982C139.247 211.218 131.08 217.129 121.592 222.696C112.103 228.263 102.869 232.114 93.8692 234.265ZM93.9416 142.312C101.13 142.312 107.269 139.818 112.357 134.847C117.445 129.858 119.98 123.712 119.98 116.391C119.98 109.07 117.427 102.87 112.303 97.7911C107.178 92.7298 101.004 90.1811 93.8148 90.1811C86.6262 90.1811 80.4877 92.7298 75.3995 97.7911C70.3113 102.87 67.7763 109.07 67.7763 116.391C67.7763 123.712 70.3294 129.858 75.4539 134.847C80.5783 139.818 86.7348 142.312 93.9416 142.312Z" fill="#C9B8AC"/>
<path d="M297.118 130.991C297.118 126.942 295.561 123.797 292.483 121.519C289.441 119.26 284.099 117.325 276.476 115.735C268.834 114.108 262.787 112.156 258.296 109.878C253.805 107.564 250.492 104.853 248.373 101.708C246.236 98.5806 245.186 94.8389 245.186 90.5007C245.186 83.2703 248.228 77.1787 254.312 72.2078C260.433 67.2007 268.255 64.6882 277.78 64.6882C287.775 64.6882 295.851 67.273 302.044 72.4247C308.273 77.5944 311.387 84.1741 311.387 92.1637H296.249C296.249 88.0785 294.475 84.5356 290.962 81.535C287.485 78.5524 283.085 77.0521 277.78 77.0521C272.275 77.0521 267.965 78.2632 264.887 80.6673C261.791 83.0353 260.252 86.1444 260.252 89.9945C260.252 93.6097 261.664 96.3573 264.525 98.2372C267.422 100.081 272.637 101.834 280.17 103.515C287.702 105.215 293.787 107.203 298.422 109.517C303.094 111.83 306.552 114.65 308.78 117.976C311.043 121.266 312.184 125.243 312.184 129.906C312.184 137.824 309.015 144.15 302.695 148.922C296.412 153.658 288.246 156.008 278.214 156.008C271.152 156.008 264.905 154.743 259.455 152.248C254.041 149.754 249.785 146.247 246.707 141.764C243.665 137.281 242.144 132.437 242.144 127.231H257.209C257.499 132.292 259.527 136.323 263.294 139.306C267.06 142.252 272.021 143.716 278.214 143.716C283.9 143.716 288.463 142.559 291.903 140.246C295.38 137.932 297.118 134.859 297.118 130.991Z" fill="white"/>
<path d="M386.279 145.669C380.431 152.574 371.812 156.008 360.422 156.008C351.042 156.008 343.908 153.297 338.983 147.838C334.058 142.343 331.559 134.281 331.522 123.616V66.3512H346.588V123.182C346.588 136.54 352.02 143.21 362.885 143.21C374.419 143.21 382.079 138.926 385.845 130.34V66.3512H400.983V154.345H386.642L386.279 145.669Z" fill="white"/>
<path d="M438.076 66.3512L438.583 77.4137C445.337 68.936 454.156 64.6882 465.02 64.6882C483.653 64.6882 493.05 75.2084 493.195 96.2127V154.345H478.13V96.0681C478.076 89.7596 476.627 85.0779 473.784 82.0411C470.923 79.0043 466.487 77.486 460.457 77.486C455.532 77.486 451.204 78.7874 447.492 81.3904C443.816 83.9933 440.973 87.4278 438.945 91.6575V154.345H423.88V66.3512H438.076Z" fill="white"/>
<path d="M512.262 109.589C512.262 95.7608 515.413 84.8248 521.751 76.7629C528.124 68.7191 536.671 64.6882 547.391 64.6882C557.821 64.6882 566.041 68.1949 572.089 75.1722L572.741 66.3512H586.575V188.183H571.51V146.175C565.426 152.736 557.332 156.008 547.246 156.008C536.562 156.008 528.07 151.869 521.751 143.572C515.413 135.293 512.262 124.321 512.262 110.673V109.589ZM527.328 111.324C527.328 121.411 529.446 129.328 533.701 135.112C537.993 140.86 543.733 143.716 550.94 143.716C559.921 143.716 566.766 139.74 571.51 131.786V88.6931C566.73 80.9385 559.939 77.0521 551.157 77.0521C543.86 77.0521 538.065 79.9443 533.774 85.7286C529.464 91.5129 527.328 100.045 527.328 111.324Z" fill="white"/>
<path d="M665.198 154.345C664.329 152.61 663.623 149.537 663.098 145.09C656.09 152.375 647.706 156.008 637.964 156.008C629.273 156.008 622.138 153.55 616.598 148.633C611.039 143.716 608.268 137.48 608.268 129.906C608.268 120.76 611.745 113.638 618.698 108.577C625.687 103.515 635.52 100.985 648.177 100.985H662.808V94.0436C662.808 88.8015 661.232 84.626 658.1 81.535C654.949 78.4078 650.314 76.8352 644.193 76.8352C638.779 76.8352 634.27 78.1909 630.649 80.8842C627.027 83.5956 625.217 86.8674 625.217 90.7176H610.006C610.006 86.3432 611.564 82.0953 614.714 77.9921C617.847 73.9069 622.066 70.6713 627.39 68.3034C632.749 65.8993 638.634 64.6882 645.062 64.6882C655.239 64.6882 663.206 67.255 668.964 72.3524C674.704 77.4137 677.692 84.391 677.946 93.2482V133.738C677.946 141.836 678.96 148.271 680.988 153.044V154.345H665.198ZM640.21 142.849C644.936 142.849 649.408 141.656 653.609 139.234C657.846 136.775 660.925 133.594 662.808 129.689V111.613H651.002C632.55 111.613 623.333 117.018 623.333 127.809C623.333 132.545 624.891 136.233 628.041 138.872C631.174 141.529 635.23 142.849 640.21 142.849Z" fill="white"/>
<path d="M744.165 79.7997C741.883 79.4743 739.421 79.2936 736.777 79.2936C726.872 79.2936 720.154 83.4872 716.642 91.8744V154.345H701.576V66.3512H716.207L716.424 76.4737C721.386 68.6287 728.411 64.6882 737.501 64.6882C740.399 64.6882 742.608 65.0858 744.165 65.845V79.7997Z" fill="white"/>
</g>
<defs>
<clipPath id="clip0_1_23">
<rect width="744" height="236" fill="white"/>
</clipPath>
</defs>
</svg>
