<svg width="744" height="236" viewBox="0 0 744 236" fill="none" xmlns="http://www.w3.org/2000/svg">
<path d="M93.8145 89.6807C86.4931 89.6808 80.2282 92.2826 75.0469 97.4365L75.0459 97.4375C69.8618 102.613 67.2764 108.941 67.2764 116.392C67.2765 123.843 69.8817 130.119 75.1055 135.205V135.206C80.3237 140.268 86.6055 142.812 93.9414 142.812C101.26 142.812 107.524 140.267 112.706 135.204H112.707C117.894 130.118 120.48 123.842 120.48 116.392C120.48 108.94 117.875 102.611 112.654 97.4355L112.162 96.96C107.042 92.1222 100.907 89.6807 93.8145 89.6807ZM170.638 46.3574L170.309 46.2383L94.04 18.5645L93.8691 18.502L93.6982 18.5645L17.4297 46.2383L17.1006 46.3574V104.822C17.1006 130.098 24.0071 152.956 37.8027 173.401L38.4648 174.373C52.7012 195.046 71.1316 209.126 93.7852 216.573L93.9287 216.62L94.0742 216.58C99.4123 215.107 105.817 212.165 113.296 207.772L114.806 206.874C122.752 202.104 129.055 197.494 133.762 193.081L145.368 204.957C138.632 211.038 130.625 216.816 121.339 222.265C111.928 227.787 102.778 231.606 93.8721 233.749C66.673 226.932 44.3206 211.147 26.8086 186.382C9.2662 161.573 0.5 134.397 0.5 104.822V35.4863L93.8691 0.53418L187.238 35.4863V104.822C187.238 120.014 185.145 135.044 180.956 149.932C176.821 164.63 169.578 178.346 159.244 191.067L118.569 152.2L118.298 151.94L117.973 152.129C114.291 154.262 110.394 156.001 106.28 157.346L106.278 157.347C102.199 158.704 98.0694 159.382 93.8691 159.382C81.8845 159.382 71.6897 155.239 63.2744 146.928V146.927C54.8621 138.636 50.6759 128.463 50.6758 116.392C50.6758 104.321 54.8619 94.109 63.2764 85.709C71.6923 77.3077 81.8865 73.1113 93.8691 73.1113C105.87 73.1113 116.063 77.3074 124.461 85.708L124.462 85.709C132.876 94.1085 137.081 104.374 137.081 116.536C137.081 120.591 136.508 124.648 135.344 128.707C134.183 132.735 132.364 136.402 129.852 139.657L129.576 140.014L129.902 140.324L155.724 164.926L156.19 165.37L156.505 164.808C161.221 156.374 164.749 146.91 167.112 136.421C169.474 125.937 170.638 115.398 170.638 104.822V46.3574Z" fill="white" stroke="white"/>
<g filter="url(#filter0_d_2046_2)">
<path d="M256.636 66.5C266.233 66.5 273.997 68.9025 280.004 73.6533L280.58 74.1211C286.566 79.089 289.61 85.3627 289.737 92.9756H275.596C275.46 89.0653 273.726 85.6544 270.476 82.7568L270.143 82.4668C266.562 79.3951 262.041 77.8643 256.636 77.8643C251.066 77.8643 246.635 79.0884 243.439 81.582C240.22 84.0437 238.607 87.2993 238.607 91.3066C238.607 95.0767 240.094 97.9874 243.106 99.9668L243.112 99.9707C246.09 101.865 251.381 103.633 258.916 105.314V105.315C266.427 107.01 272.469 108.986 277.055 111.275L277.056 111.276C281.673 113.563 285.054 116.332 287.22 119.566L287.224 119.571C289.421 122.765 290.54 126.639 290.54 131.218C290.54 138.735 287.636 144.769 281.822 149.392L281.25 149.835C275.075 154.489 267.024 156.82 257.07 156.82C250.069 156.82 243.894 155.566 238.519 153.105H238.52C233.347 150.722 229.26 147.41 226.262 143.203L225.976 142.793C223.086 138.534 221.599 133.954 221.505 129.043H235.599C235.993 134.019 238.072 138.027 241.839 141.01L241.842 141.012C245.719 144.045 250.8 145.528 257.07 145.528C262.819 145.528 267.49 144.359 271.038 141.973L271.037 141.972C274.638 139.575 276.475 136.354 276.475 132.303C276.475 128.103 274.848 124.805 271.636 122.429C268.501 120.101 263.068 118.15 255.434 116.557H255.433C247.816 114.935 241.816 112.995 237.38 110.745H237.381C232.94 108.457 229.701 105.795 227.644 102.74L227.642 102.737C225.571 99.7063 224.542 96.067 224.542 91.8125C224.542 84.7468 227.505 78.7926 233.484 73.9072V73.9062C239.498 68.9862 247.203 66.5 256.636 66.5Z" fill="#EFEFEF" stroke="white"/>
<path d="M324.944 68.163V124.494C324.944 131.228 326.311 136.369 329.13 139.833C331.966 143.317 336.201 145.022 341.741 145.022C347.567 145.022 352.456 143.94 356.378 141.743C360.307 139.542 363.235 136.238 365.159 131.852L365.201 131.757V68.163H379.338V155.157H365.978L365.635 146.96L365.582 145.68L364.753 146.657C359.024 153.421 350.562 156.82 339.278 156.82C329.998 156.82 323.016 154.141 318.21 148.815H318.211C313.548 143.612 311.072 136.013 310.889 125.911L310.878 124.926V68.163H324.944Z" fill="#EFEFEF" stroke="white"/>
<path d="M457.486 97.376C457.431 91.0055 455.969 86.1776 453.005 83.0117L453.004 83.0098L452.719 82.7168C449.725 79.7405 445.228 78.2979 439.313 78.2979C434.295 78.2979 429.865 79.6258 426.061 82.293L426.059 82.2939C422.31 84.9489 419.413 88.4511 417.35 92.7529L417.301 92.8555V155.157H403.236V68.1631H416.455L416.94 78.748L417 80.0781L417.831 79.0371C424.49 70.6789 433.164 66.5 443.876 66.5C453.098 66.5001 459.95 69.1007 464.524 74.2188C468.964 79.1878 471.329 86.6085 471.538 96.5576L471.551 97.5283V155.157H457.486V97.376Z" fill="#EFEFEF" stroke="white"/>
<path d="M526.247 66.5C536.552 66.5001 544.627 69.9581 550.567 76.8115L551.355 77.7207L551.444 76.5205L552.062 68.1631H564.932V188.995H550.866V146.212L549.999 147.146C544.022 153.592 536.068 156.82 526.102 156.82C515.57 156.82 507.226 152.75 501.004 144.581V144.58L500.427 143.806C494.559 135.731 491.618 125.133 491.618 111.985V110.9C491.618 97.1451 494.752 86.3299 500.999 78.3828C507.273 70.4657 515.673 66.5 526.247 66.5ZM550.866 89.8633L550.791 89.7422C545.924 81.847 538.976 77.8643 530.013 77.8643C522.793 77.8643 516.989 80.6472 512.645 86.1973L512.229 86.7422C507.827 92.6497 505.684 101.307 505.684 112.636C505.684 122.787 507.815 130.822 512.154 136.721L512.157 136.724C516.544 142.599 522.433 145.528 529.796 145.528C538.96 145.528 545.964 141.453 550.795 133.354L550.866 133.236V89.8633Z" fill="#EFEFEF" stroke="white"/>
<path d="M623.918 66.5C633.696 66.5 641.355 68.8881 646.953 73.5771L647.489 74.0391C653.108 78.9935 656.051 85.8308 656.302 94.5742V135.05C656.302 143.127 657.306 149.605 659.344 154.453V155.157H644.371C643.601 153.459 642.947 150.55 642.45 146.344L642.326 145.293L641.593 146.056C634.676 153.246 626.421 156.82 616.82 156.82C608.228 156.82 601.219 154.393 595.785 149.571V149.57L595.282 149.115C590.169 144.369 587.624 138.42 587.624 131.218C587.624 122.219 591.033 115.252 597.848 110.292C604.72 105.316 614.435 102.797 627.033 102.797H642.164V95.3555C642.164 90.1737 640.652 85.9635 637.606 82.7939L637.307 82.4912C634.032 79.2416 629.25 77.6475 623.049 77.6475C617.549 77.6475 612.929 79.026 609.206 81.7949L609.205 81.7959C605.638 84.4669 603.736 87.7102 603.584 91.5293H589.37C589.48 87.5898 590.897 83.7397 593.682 79.9863L593.967 79.6084C597.043 75.5973 601.192 72.4105 606.448 70.0723H606.449L606.45 70.0713C611.74 67.6985 617.554 66.5001 623.918 66.5ZM629.857 112.425C620.599 112.425 613.576 113.778 608.852 116.545C604.086 119.336 601.69 123.55 601.689 129.121C601.689 133.826 603.195 137.576 606.273 140.306L606.576 140.567C609.817 143.316 613.996 144.66 619.065 144.66C623.88 144.66 628.439 143.444 632.715 140.979L632.716 140.978C637.027 138.476 640.182 135.225 642.114 131.219L642.164 131.115V112.425H629.857Z" fill="#EFEFEF" stroke="white"/>
<path d="M716.357 66.5C719.04 66.5 721.074 66.8466 722.521 67.4766V80.54C720.377 80.2604 718.081 80.1055 715.633 80.1055C710.611 80.1055 706.358 81.1688 702.904 83.3262C699.447 85.4856 696.827 88.7188 695.037 92.9932L694.998 93.0859V155.157H680.932V68.1631H694.574L694.781 77.7959L694.816 79.4551L695.703 78.0527C700.575 70.3484 707.444 66.5001 716.357 66.5Z" fill="#EFEFEF" stroke="white"/>
</g>
<defs>
<filter id="filter0_d_2046_2" x="217" y="66" width="510.021" height="131.495" filterUnits="userSpaceOnUse" color-interpolation-filters="sRGB">
<feFlood flood-opacity="0" result="BackgroundImageFix"/>
<feColorMatrix in="SourceAlpha" type="matrix" values="0 0 0 0 0 0 0 0 0 0 0 0 0 0 0 0 0 0 127 0" result="hardAlpha"/>
<feOffset dy="4"/>
<feGaussianBlur stdDeviation="2"/>
<feComposite in2="hardAlpha" operator="out"/>
<feColorMatrix type="matrix" values="0 0 0 0 0 0 0 0 0 0 0 0 0 0 0 0 0 0 0.25 0"/>
<feBlend mode="normal" in2="BackgroundImageFix" result="effect1_dropShadow_2046_2"/>
<feBlend mode="normal" in="SourceGraphic" in2="effect1_dropShadow_2046_2" result="shape"/>
</filter>
</defs>
</svg>
